:SAMPLES-PER-SECOND 30
:FULLY-SPECIFIED
:DEGREES
31
root  -95.5025 19.6155 0.402621 -171.247 86.8239 -168.219
RightUpLeg  -79.8941 -5.34009 8.41238
RightLeg  119.308 12.695 -1.82945
RightFoot  -33.1251 -1.20371 -6.83459
RightToes  1.16414e-010 -1.59028e-015 9.93923e-017
Spine  51.3538 -0.523567 -0.823384
Spine1  -11.0163 -0.0162896 1.84436
HEad  -34.9229 0.645922 2.52654
LeftShoulder1  9.93923e-017 0 1.22299e-017
LeftArm  -5.55676 -44.4373 -66.7972
LeftForeArm  -122.358 -49.4633 166.924
LeftHand  0.10364 3.91552 15.1051
RightShoulder  1.98785e-016 -4.96962e-017 1.55301e-017
RightArm  -27.8824 32.8855 73.0815
RightForeArm  68.7647 41.8904 -164.888
RightHand  3.33005 9.11287 30.5737
LeftUpLeg  -83.5393 -0.614651 -0.438705
LeftLeg  115.711 -15.8137 3.36589
LeftFoot  -26.6887 -0.242231 -1.37816
LeftToes  -6.63929e-010 -3.62392e-011 -1.02376e-010
32
root  -94.2414 17.093 0.303702 177.859 87.1541 -175.498
RightUpLeg  -81.0228 -4.47123 7.46155
RightLeg  130.368 13.594 -1.79388
RightFoot  -35.1878 -0.895657 -4.54756
RightToes  1.16414e-010 -1.59028e-015 9.93923e-017
Spine  52.9115 -0.344163 -0.398219
Spine1  -9.77177 0.110842 1.49894
HEad  -38.7355 0.618317 2.21697
LeftShoulder1  9.93923e-017 0 1.22299e-017
LeftArm  -6.03037 -44.9678 -67.1588
LeftForeArm  -121.337 -49.7271 166.643
LeftHand  0.0785 3.85748 15.3999
RightShoulder  1.98785e-016 -4.96962e-017 1.55301e-017
RightArm  -27.9335 33.623 73.1956
RightForeArm  69.6226 42.5351 -164.265
RightHand  3.60125 9.94911 31.4053
LeftUpLeg  -85.658 -0.356909 -0.23378
LeftLeg  127.12 -16.8403 2.70778
LeftFoot  -28.2837 -0.481833 -3.07606
LeftToes  -6.63929e-010 -3.62392e-011 -1.02376e-010
33
root  -92.9917 15.1511 0.209352 160.086 87.1038 170.14
RightUpLeg  -80.4973 -3.9141 6.41487
RightLeg  139.523 14.5113 -1.66166
RightFoot  -35.973 -0.400892 -1.98649
RightToes  1.16414e-010 -1.59028e-015 9.93923e-017
Spine  52.7334 -0.181747 -0.27607
Spine1  -6.75488 0.137334 1.32231
HEad  -40.9297 0.855156 2.03744
LeftShoulder1  9.93923e-017 0 1.22299e-017
LeftArm  -6.31414 -46.5262 -66.7214
LeftForeArm  -121.007 -50.472 166.005
LeftHand  0.118997 4.03681 15.7413
RightShoulder  1.98785e-016 -4.96962e-017 1.55301e-017
RightArm  -27.9823 35.9595 72.7281
RightForeArm  71.2721 43.2692 -163.581
RightHand  4.02039 11.6065 32.13
LeftUpLeg  -85.5907 -0.202681 -0.17276
LeftLeg  136.051 -16.7509 1.26734
LeftFoot  -29.4529 -0.790115 -4.97702
LeftToes  -6.63929e-010 -3.62392e-011 -1.02376e-010
34
root  -91.8689 14.3345 0.140017 149.848 86.8252 161.029
RightUpLeg  -78.2401 -3.82565 6.04653
RightLeg  144.586 15.6954 -1.97595
RightFoot  -37.8376 0.239965 1.09996
RightToes  1.16414e-010 -1.59028e-015 9.93923e-017
Spine  51.201 -0.0316684 -0.214531
Spine1  -4.79047 0.189282 1.34114
HEad  -40.6716 0.728685 2.34902
LeftShoulder1  9.93923e-017 0 1.22299e-017
LeftArm  -5.94615 -47.9554 -65.9404
LeftForeArm  -120.907 -50.5914 165.899
LeftHand  0.129882 4.12209 16.2002
RightShoulder  1.98785e-016 -4.96962e-017 1.55301e-017
RightArm  -28.5562 38.1303 71.8465
RightForeArm  71.6174 43.1891 -163.698
RightHand  4.16348 12.518 31.9458
LeftUpLeg  -83.6846 0.0322236 -0.140036
LeftLeg  141.039 -16.355 0.37932
LeftFoot  -31.3917 -1.22512 -7.15477
LeftToes  -6.63929e-010 -3.62392e-011 -1.02376e-010
35
root  -90.8938 14.9994 0.128767 145.936 86.5909 155.529
RightUpLeg  -74.4675 -3.99371 5.2425
RightLeg  144.407 15.3961 -1.76769
RightFoot  -38.4364 0.87568 3.92975
RightToes  1.16414e-010 -1.59028e-015 9.93923e-017
Spine  49.7638 0.120024 -0.322542
Spine1  -5.27501 0.207293 1.34195
HEad  -40.2579 0.348609 3.04902
LeftShoulder1  9.93923e-017 0 1.22299e-017
LeftArm  -5.892 -48.5004 -64.6188
LeftForeArm  -121.319 -49.5431 166.791
LeftHand  0.0242194 3.86571 17.2059
RightShoulder  1.98785e-016 -4.96962e-017 1.55301e-017
RightArm  -29.6477 39.2123 70.8234
RightForeArm  69.9856 42.2796 -164.565
RightHand  4.07651 12.201 31.788
LeftUpLeg  -80.1564 0.348222 -0.0600654
LeftLeg  141.188 -15.8421 -0.0248029
LeftFoot  -31.6435 -1.57705 -9.25619
LeftToes  -6.63929e-010 -3.62392e-011 -1.02376e-010
36
root  -89.9327 16.9067 0.196517 143.706 86.2741 150.192
RightUpLeg  -69.8205 -4.15621 3.72277
RightLeg  139.648 13.5236 -0.861006
RightFoot  -36.8015 1.0526 5.01459
RightToes  1.16414e-010 -1.59028e-015 9.93923e-017
Spine  48.3772 0.262874 -0.85291
Spine1  -7.03797 0.0804428 1.29531
HEad  -40.2869 0.195789 3.54467
LeftShoulder1  9.93923e-017 0 1.22299e-017
LeftArm  -6.43099 -48.0145 -63.1959
LeftForeArm  -122.472 -48.4681 167.705
LeftHand  -0.081606 3.62487 18.2498
RightShoulder  1.98785e-016 -4.96962e-017 1.55301e-017
RightArm  -30.4177 38.91 70.4176
RightForeArm  68.2484 41.5903 -165.162
RightHand  4.25526 12.092 32.9691
LeftUpLeg  -75.416 0.750997 0.0312038
LeftLeg  136.753 -14.9098 -0.46904
LeftFoot  -29.5245 -1.5682 -10.4305
LeftToes  -6.63929e-010 -3.62392e-011 -1.02376e-010
37
root  -88.7694 19.3633 0.307187 145.036 86.012 148.552
RightUpLeg  -63.9111 -4.5657 3.00427
RightLeg  132.316 12.4039 -0.366767
RightFoot  -35.5804 1.0437 5.24423
RightToes  1.16414e-010 -1.59028e-015 9.93923e-017
Spine  46.1656 0.292614 -1.44861
Spine1  -8.62699 -0.160197 1.25724
HEad  -38.0658 0.337394 3.50952
LeftShoulder1  9.93923e-017 0 1.22299e-017
LeftArm  -6.49766 -46.6263 -62.7247
LeftForeArm  -123.77 -48.6599 167.653
LeftHand  -0.0251825 3.80399 18.1734
RightShoulder  1.98785e-016 -4.96962e-017 1.55301e-017
RightArm  -29.9244 37.009 71.3179
RightForeArm  68.0213 41.8688 -164.857
RightHand  4.72565 12.8582 34.8047
LeftUpLeg  -69.3647 1.42459 0.366955
LeftLeg  129.833 -13.9569 -1.03491
LeftFoot  -27.559 -1.51432 -11.5286
LeftToes  -6.63929e-010 -3.62392e-011 -1.02376e-010
38
root  -87.3311 21.7276 0.409988 150.508 86.0691 152.234
RightUpLeg  -57.8089 -5.25526 3.18636
RightLeg  124.906 12.3507 -0.7755
RightFoot  -31.8231 1.05986 6.5563
RightToes  1.16414e-010 -1.59028e-015 9.93923e-017
Spine  43.3072 0.150285 -1.62849
Spine1  -9.61315 -0.394888 1.12129
HEad  -32.325 0.574367 3.23868
LeftShoulder1  9.93923e-017 0 1.22299e-017
LeftArm  -5.72828 -44.7742 -63.0685
LeftForeArm  -124.492 -49.6057 166.962
LeftHand  0.120374 4.16742 17.0134
RightShoulder  1.98785e-016 -4.96962e-017 1.55301e-017
RightArm  -28.4714 34.1895 72.9193
RightForeArm  68.3622 42.5749 -164.127
RightHand  4.93952 13.1455 35.6593
LeftUpLeg  -62.9606 2.31675 1.22668
LeftLeg  123.025 -13.7579 -0.944367
LeftFoot  -23.562 -1.23061 -13.2774
LeftToes  -6.63929e-010 -3.62392e-011 -1.02376e-010
39
root  -85.8739 23.7342 0.49447 156.409 86.2827 157.655
RightUpLeg  -54.2365 -5.70495 3.37132
RightLeg  119.227 12.6495 -1.71835
RightFoot  -19.1854 0.438993 7.95009
RightToes  1.16414e-010 -1.59028e-015 9.93923e-017
Spine  41.0051 -0.0814703 -1.49446
Spine1  -9.81359 -0.575365 0.862971
HEad  -26.1329 0.863544 3.11529
LeftShoulder1  9.93923e-017 0 1.22299e-017
LeftArm  -5.18091 -43.2858 -62.9561
LeftForeArm  -125.333 -49.8788 166.805
LeftHand  0.154099 4.23386 16.4998
RightShoulder  1.98785e-016 -4.96962e-017 1.55301e-017
RightArm  -27.2714 32.1196 73.6861
RightForeArm  68.4065 42.8077 -163.877
RightHand  4.84566 12.9364 35.3895
LeftUpLeg  -58.6866 2.91282 2.14376
LeftLeg  117.491 -14.5738 0.800658
LeftFoot  -11.9941 0.0502056 -12.5426
LeftToes  -6.63929e-010 -3.62392e-011 -1.02376e-010
40
root  -84.6097 25.3278 0.570954 159.077 86.325 160.604
RightUpLeg  -54.1382 -5.60654 3.09216
RightLeg  115.863 12.7442 -2.31269
RightFoot  -2.11195 -0.657714 7.01574
RightToes  1.16414e-010 -1.59028e-015 9.93923e-017
Spine  39.955 -0.287374 -1.41621
Spine1  -9.12471 -0.707036 0.634683
HEad  -23.0477 1.27552 3.09898
LeftShoulder1  9.93923e-017 0 1.22299e-017
LeftArm  -5.6968 -42.7642 -61.8716
LeftForeArm  -126.846 -49.3445 167.338
LeftHand  0.0763793 4.05742 17.3892
RightShoulder  1.98785e-016 -4.96962e-017 1.55301e-017
RightArm  -27.048 31.884 72.9833
RightForeArm  68.3645 42.5736 -164.129
RightHand  4.78037 12.9797 34.9657
LeftUpLeg  -57.6542 2.74677 2.52665
LeftLeg  113.428 -15.4716 3.1926
LeftFoot  3.2026 1.01687 -6.97856
LeftToes  -6.63929e-010 -3.62392e-011 -1.02376e-010
41
root  -83.4629 26.6097 0.640563 160.219 86.2328 162.037
RightUpLeg  -55.9666 -5.11109 2.74393
RightLeg  113.943 12.592 -2.3127
RightFoot  6.38737 -0.828652 4.74446
RightToes  1.16414e-010 -1.59028e-015 9.93923e-017
Spine  39.9156 -0.456005 -1.32771
Spine1  -8.16825 -0.775774 0.520429
HEad  -22.6836 1.7572 2.98127
LeftShoulder1  9.93923e-017 0 1.22299e-017
LeftArm  -6.7713 -42.8094 -60.6072
LeftForeArm  -127.898 -49.066 167.63
LeftHand  0.0526475 4.05746 18.2088
RightShoulder  1.98785e-016 -4.96962e-017 1.55301e-017
RightArm  -27.2495 32.7943 71.8871
RightForeArm  68.8808 42.5001 -164.247
RightHand  4.8259 13.2336 34.9136
LeftUpLeg  -58.6901 1.95535 2.51709
LeftLeg  110.624 -15.9891 5.1191
LeftFoot  10.4993 0.321956 -1.16118
LeftToes  -6.63929e-010 -3.62392e-011 -1.02376e-010
42
root  -82.3594 27.7845 0.716847 161.561 86.239 163.293
RightUpLeg  -58.6005 -4.40057 2.64877
RightLeg  111.588 12.3888 -2.2371
RightFoot  4.58579 -0.383941 2.43583
RightToes  1.16414e-010 -1.59028e-015 9.93923e-017
Spine  40.561 -0.610232 -1.11816
Spine1  -7.86177 -0.745781 0.365289
HEad  -22.4378 2.13256 2.8271
LeftShoulder1  9.93923e-017 0 1.22299e-017
LeftArm  -7.42019 -42.6169 -59.9996
LeftForeArm  -127.708 -49.4169 167.344
LeftHand  0.131254 4.27603 17.7794
RightShoulder  1.98785e-016 -4.96962e-017 1.55301e-017
RightArm  -26.8658 33.4744 71.6555
RightForeArm  69.8216 42.7588 -164.036
RightHand  4.78061 13.0479 34.8826
LeftUpLeg  -60.7581 1.1647 2.27498
LeftLeg  108.039 -16.3632 7.02879
LeftFoot  8.01136 -0.303753 1.72897
LeftToes  -6.63929e-010 -3.62392e-011 -1.02376e-010
